<svg xmlns="http://www.w3.org/2000/svg" viewBox="0 0 658 585" width="658" height="585">
	<style>
		tspan { white-space:pre }
		.shp0 { opacity: 0.18;fill: #6ea2e6 } 
		.shp1 { fill: #3d517d } 
		.shp2 { fill: #fc826a } 
		.shp3 { fill: #ffc182 } 
		.shp4 { fill: #6ea2e6 } 
		.shp5 { fill: #323e59 } 
		.shp6 { fill: #5a70a1 } 
		.shp7 { fill: #6887d9 } 
		.shp8 { fill: #ffffff } 
		.shp9 { fill: #a877ba } 
		.shp10 { fill: #b681c9 } 
		.shp11 { fill: #ffd587 } 
		.shp12 { fill: #ffd98c } 
		.shp13 { fill: #e6e6e6 } 
		.shp14 { fill: #c4c4c4 } 
		.shp15 { fill: #ffc987 } 
		.shp16 { fill: none;stroke: #6ea2e6;stroke-width: 2 } 
		.shp17 { fill: #ff9670 } 
		.shp18 { fill: none;stroke: #ffc182;stroke-linecap:round;stroke-width: 2 } 
		.shp19 { fill: none;stroke: #ff9670;stroke-width: 4 } 
		.shp20 { fill: #d6d6d6 } 
		.shp21 { mix-blend-mode: multiply;fill: #e6e6e6 } 
	</style>
	<g id="OBJECTS">
		<g id="&lt;Group&gt;">
			<g id="&lt;Group&gt;">
				<path id="&lt;Path&gt;" class="shp0" d="M112.25 447.18L17.89 447.18C11.63 447.18 6.56 442.11 6.56 435.85L6.56 342.27C6.56 336.01 11.63 330.94 17.89 330.94L112.25 330.94C118.5 330.94 123.58 336.01 123.58 342.27L123.58 435.85C123.58 442.11 118.5 447.18 112.25 447.18Z" />
				<path id="&lt;Path&gt;" class="shp0" d="M641.33 228.01L546.97 228.01C540.71 228.01 535.64 222.94 535.64 216.68L535.64 123.11C535.64 116.85 540.71 111.77 546.97 111.77L641.33 111.77C647.59 111.77 652.66 116.85 652.66 123.11L652.66 216.68C652.66 222.94 647.59 228.01 641.33 228.01Z" />
				<path id="&lt;Path&gt;" class="shp0" d="M529.53 529.49L435.18 529.49C428.92 529.49 423.84 524.41 423.84 518.16L423.84 424.58C423.84 418.32 428.92 413.25 435.18 413.25L529.53 413.25C535.79 413.25 540.87 418.32 540.87 424.58L540.87 518.16C540.87 524.41 535.79 529.49 529.53 529.49Z" />
				<path id="&lt;Path&gt;" class="shp0" d="M223.52 195.63L129.16 195.63C122.9 195.63 117.83 190.55 117.83 184.29L117.83 90.72C117.83 84.46 122.9 79.39 129.16 79.39L223.52 79.39C229.78 79.39 234.85 84.46 234.85 90.72L234.85 184.29C234.85 190.55 229.78 195.63 223.52 195.63Z" />
				<g id="&lt;Group&gt;">
					<g id="&lt;Group&gt;">
						<path id="&lt;Path&gt;" class="shp1" d="M564.76 472.97L100 472.97C93.74 472.97 88.67 467.9 88.67 461.64L88.67 159.63C88.67 153.37 93.74 148.29 100 148.29L564.76 148.29C571.02 148.29 576.09 153.37 576.09 159.63L576.09 461.64C576.09 467.9 571.02 472.97 564.76 472.97Z" />
					</g>
					<path id="&lt;Path&gt;" class="shp2" d="M559.94 167.83C559.94 170.26 557.97 172.22 555.55 172.22C553.12 172.22 551.15 170.26 551.15 167.83C551.15 165.41 553.12 163.44 555.55 163.44C557.97 163.44 559.94 165.41 559.94 167.83Z" />
					<path id="&lt;Path&gt;" class="shp3" d="M540.9 167.83C540.9 170.26 538.93 172.22 536.51 172.22C534.08 172.22 532.12 170.26 532.12 167.83C532.12 165.41 534.08 163.44 536.51 163.44C538.93 163.44 540.9 165.41 540.9 167.83Z" />
					<path id="&lt;Path&gt;" class="shp4" d="M521.86 167.83C521.86 170.26 519.9 172.22 517.47 172.22C515.05 172.22 513.08 170.26 513.08 167.83C513.08 165.41 515.05 163.44 517.47 163.44C519.9 163.44 521.86 165.41 521.86 167.83Z" />
					<g id="&lt;Group&gt;">
						<path id="&lt;Path&gt;" class="shp1" d="M214.29 308.2L119.93 308.2C113.67 308.2 108.6 303.13 108.6 296.87L108.6 203.29C108.6 197.03 113.67 191.96 119.93 191.96L214.29 191.96C220.54 191.96 225.62 197.03 225.62 203.29L225.62 296.87C225.62 303.13 220.54 308.2 214.29 308.2Z" />
						<path id="&lt;Path&gt;" class="shp5" d="M113.26 303.78L113.26 205.61C113.26 200.62 117.31 196.58 122.3 196.58L221.24 196.58C222.52 196.58 223.73 196.84 224.83 197.32C223.42 194.16 220.26 191.96 216.58 191.96L117.63 191.96C112.64 191.96 108.6 196.01 108.6 201L108.6 299.16C108.6 302.88 110.84 306.07 114.05 307.46C113.54 306.33 113.26 305.09 113.26 303.78Z" />
						<path id="&lt;Path&gt;" class="shp6" d="M220.5 192.86C221.44 194.29 221.99 195.99 221.99 197.83L221.99 295.99C221.99 300.98 217.94 305.03 212.95 305.03L114 305.03C112.6 305.03 111.27 304.7 110.08 304.12C111.7 306.58 114.48 308.2 117.63 308.2L216.58 308.2C221.57 308.2 225.62 304.15 225.62 299.16L225.62 201C225.62 197.41 223.53 194.33 220.5 192.86Z" />
					</g>
					<g id="&lt;Group&gt;">
						<path id="&lt;Path&gt;" class="shp1" d="M353.15 443.01L258.8 443.01C252.54 443.01 247.47 437.93 247.47 431.67L247.47 338.1C247.47 331.84 252.54 326.77 258.8 326.77L353.15 326.77C359.41 326.77 364.49 331.84 364.49 338.1L364.49 431.67C364.49 437.93 359.41 443.01 353.15 443.01Z" />
						<path id="&lt;Path&gt;" class="shp5" d="M252.13 438.58L252.13 340.42C252.13 335.43 256.18 331.38 261.17 331.38L360.11 331.38C361.39 331.38 362.6 331.65 363.7 332.13C362.29 328.97 359.13 326.77 355.45 326.77L256.5 326.77C251.51 326.77 247.47 330.81 247.47 335.81L247.47 433.97C247.47 437.68 249.71 440.87 252.92 442.26C252.41 441.14 252.13 439.9 252.13 438.58Z" />
						<path id="&lt;Path&gt;" class="shp6" d="M359.37 327.67C360.31 329.1 360.86 330.8 360.86 332.63L360.86 430.8C360.86 435.79 356.81 439.83 351.82 439.83L252.87 439.83C251.47 439.83 250.14 439.5 248.95 438.93C250.57 441.38 253.35 443.01 256.5 443.01L355.45 443.01C360.44 443.01 364.49 438.96 364.49 433.97L364.49 335.81C364.49 332.22 362.4 329.13 359.37 327.67Z" />
					</g>
					<g id="&lt;Group&gt;">
						<g id="&lt;Group&gt;">
							<path id="&lt;Path&gt;" class="shp7" d="M215.03 443.01L120.67 443.01C114.41 443.01 109.34 437.93 109.34 431.67L109.34 338.1C109.34 331.84 114.41 326.77 120.67 326.77L215.03 326.77C221.29 326.77 226.36 331.84 226.36 338.1L226.36 431.67C226.36 437.93 221.29 443.01 215.03 443.01Z" />
							<path id="&lt;Path&gt;" class="shp4" d="M217.32 443.01C222.32 443.01 226.36 438.96 226.36 433.97L226.36 335.81C226.36 332.12 224.15 328.95 220.99 327.55C180.25 390.87 135.78 420.54 109.34 433.63L109.34 433.97C109.34 438.96 113.39 443.01 118.38 443.01L217.32 443.01Z" />
						</g>
					</g>
					<path id="&lt;Compound Path&gt;" fill-rule="evenodd" class="shp8" d="M188.94 394.3L185.17 400.84C184.52 401.97 183.08 402.35 181.95 401.7L179.39 400.22C179.18 400.1 178.91 400.13 178.73 400.3C177.41 401.51 175.92 402.53 174.29 403.31C174.09 403.41 173.96 403.6 173.96 403.82L173.96 407.16C173.96 408.46 172.91 409.51 171.61 409.51L164.06 409.51C162.76 409.51 161.71 408.46 161.71 407.16L161.71 404.94C161.71 404.68 161.54 404.46 161.29 404.39C159.3 403.81 157.45 402.91 155.8 401.73C155.62 401.6 155.38 401.58 155.19 401.7L152.99 402.96C151.86 403.61 150.42 403.23 149.77 402.1L146 395.57C145.35 394.44 145.74 393 146.86 392.35L148.33 391.5C148.55 391.38 148.65 391.13 148.6 390.88C148.31 389.6 148.14 388.27 148.14 386.9C148.14 386.04 148.21 385.21 148.33 384.39C148.37 384.16 148.26 383.93 148.05 383.81L146.13 382.7C145.01 382.05 144.62 380.61 145.27 379.49L149.04 372.95C149.69 371.83 151.13 371.44 152.26 372.09L153.94 373.06C154.15 373.18 154.41 373.16 154.6 373C156.15 371.68 157.94 370.61 159.88 369.87C160.1 369.79 160.25 369.58 160.25 369.34L160.25 366.63C160.25 365.33 161.3 364.28 162.6 364.28L170.15 364.28C171.45 364.28 172.51 365.33 172.51 366.63L172.51 369.34C172.51 369.58 172.65 369.79 172.87 369.87C174.58 370.52 176.17 371.41 177.59 372.51C177.77 372.66 178.02 372.68 178.22 372.56L181.22 370.83C182.35 370.18 183.79 370.56 184.44 371.69L188.21 378.22C188.86 379.35 188.48 380.79 187.35 381.44L184.59 383.03C184.39 383.15 184.28 383.39 184.32 383.63C184.51 384.69 184.62 385.78 184.62 386.9C184.62 387.49 184.58 388.07 184.52 388.64C184.5 388.87 184.61 389.08 184.8 389.19L188.08 391.09C189.21 391.74 189.59 393.18 188.94 394.3ZM176.04 386.9C176.04 381.96 172.04 377.96 167.11 377.96C162.17 377.96 158.17 381.96 158.17 386.9C158.17 391.83 162.17 395.83 167.11 395.83C172.04 395.83 176.04 391.83 176.04 386.9Z" />
					<g id="&lt;Group&gt;">
						<g id="&lt;Group&gt;">
							<path id="&lt;Path&gt;" class="shp9" d="M355.04 239.12L256.92 239.12C251.7 239.12 247.47 234.89 247.47 229.67L247.47 202.31C247.47 197.1 251.7 192.86 256.92 192.86L355.04 192.86C360.26 192.86 364.49 197.1 364.49 202.31L364.49 229.67C364.49 234.89 360.26 239.12 355.04 239.12Z" />
						</g>
						<g id="&lt;Group&gt;">
							<path id="&lt;Path&gt;" class="shp10" d="M364.49 230.08L364.49 201.9C364.49 198.69 362.81 195.88 360.28 194.27C322.92 221.03 270.13 229.47 247.66 231.94C248.51 236.04 252.15 239.12 256.5 239.12L355.45 239.12C360.44 239.12 364.49 235.08 364.49 230.08Z" />
						</g>
						<path id="&lt;Path&gt;" class="shp11" d="" />
						<path id="&lt;Path&gt;" class="shp8" d="M284.54 216.26C284.54 223.72 278.49 229.76 271.04 229.76C263.58 229.76 257.53 223.72 257.53 216.26C257.53 208.8 263.58 202.76 271.04 202.76C278.49 202.76 284.54 208.8 284.54 216.26Z" />
						<path id="&lt;Path&gt;" class="shp8" d="M349.93 209.81L297.6 209.81C296.88 209.81 296.3 209.23 296.3 208.51C296.3 207.8 296.88 207.22 297.6 207.22L349.93 207.22C350.64 207.22 351.22 207.8 351.22 208.51C351.22 209.23 350.64 209.81 349.93 209.81Z" />
						<path id="&lt;Path&gt;" class="shp8" d="M349.93 218.58L297.6 218.58C296.88 218.58 296.3 218 296.3 217.29C296.3 216.57 296.88 215.99 297.6 215.99L349.93 215.99C350.64 215.99 351.22 216.57 351.22 217.29C351.22 218 350.64 218.58 349.93 218.58Z" />
						<path id="&lt;Path&gt;" class="shp8" d="M336.91 227.36L297.6 227.36C296.88 227.36 296.3 226.78 296.3 226.07C296.3 225.35 296.88 224.77 297.6 224.77L336.91 224.77C337.63 224.77 338.21 225.35 338.21 226.07C338.21 226.78 337.63 227.36 336.91 227.36Z" />
					</g>
					<g id="&lt;Group&gt;">
						<path id="&lt;Path&gt;" class="shp3" d="M355.04 307.08L256.92 307.08C251.7 307.08 247.47 302.85 247.47 297.63L247.47 270.27C247.47 265.05 251.7 260.82 256.92 260.82L355.04 260.82C360.26 260.82 364.49 265.05 364.49 270.27L364.49 297.63C364.49 302.85 360.26 307.08 355.04 307.08Z" />
						<path id="&lt;Path&gt;" class="shp12" d="M364.49 298.04L364.49 269.86C364.49 266.65 362.81 263.83 360.28 262.23C322.92 288.98 270.13 297.42 247.66 299.89C248.51 304 252.15 307.08 256.5 307.08L355.45 307.08C360.44 307.08 364.49 303.03 364.49 298.04Z" />
						<path id="&lt;Path&gt;" class="shp11" d="" />
						<path id="&lt;Path&gt;" class="shp8" d="M284.54 284.22C284.54 291.67 278.49 297.72 271.04 297.72C263.58 297.72 257.53 291.67 257.53 284.22C257.53 276.76 263.58 270.71 271.04 270.71C278.49 270.71 284.54 276.76 284.54 284.22Z" />
						<path id="&lt;Path&gt;" class="shp8" d="M349.93 277.76L297.6 277.76C296.88 277.76 296.3 277.18 296.3 276.47C296.3 275.75 296.88 275.17 297.6 275.17L349.93 275.17C350.64 275.17 351.22 275.75 351.22 276.47C351.22 277.18 350.64 277.76 349.93 277.76Z" />
						<path id="&lt;Path&gt;" class="shp8" d="M349.93 286.54L297.6 286.54C296.88 286.54 296.3 285.96 296.3 285.24C296.3 284.53 296.88 283.95 297.6 283.95L349.93 283.95C350.64 283.95 351.22 284.53 351.22 285.24C351.22 285.96 350.64 286.54 349.93 286.54Z" />
						<path id="&lt;Path&gt;" class="shp8" d="M336.91 295.32L297.6 295.32C296.88 295.32 296.3 294.74 296.3 294.02C296.3 293.31 296.88 292.73 297.6 292.73L336.91 292.73C337.63 292.73 338.21 293.31 338.21 294.02C338.21 294.74 337.63 295.32 336.91 295.32Z" />
					</g>
					<g id="&lt;Group&gt;">
						<path id="&lt;Path&gt;" class="shp3" d="M531.42 435.32L433.3 435.32C428.08 435.32 423.84 431.09 423.84 425.87L423.84 398.51C423.84 393.29 428.08 389.06 433.3 389.06L531.42 389.06C536.64 389.06 540.87 393.29 540.87 398.51L540.87 425.87C540.87 431.09 536.64 435.32 531.42 435.32Z" />
						<path id="&lt;Path&gt;" class="shp12" d="M540.87 426.28L540.87 398.1C540.87 394.89 539.19 392.07 536.66 390.47C499.3 417.23 446.51 425.66 424.04 428.13C424.89 432.24 428.53 435.32 432.88 435.32L531.83 435.32C536.82 435.32 540.87 431.27 540.87 426.28Z" />
						<path id="&lt;Path&gt;" class="shp11" d="" />
						<path id="&lt;Path&gt;" class="shp8" d="M460.92 412.46C460.92 419.91 454.87 425.96 447.41 425.96C439.96 425.96 433.91 419.91 433.91 412.46C433.91 405 439.96 398.95 447.41 398.95C454.87 398.95 460.92 405 460.92 412.46Z" />
						<path id="&lt;Path&gt;" class="shp8" d="M526.31 406L473.98 406C473.26 406 472.68 405.42 472.68 404.71C472.68 403.99 473.26 403.41 473.98 403.41L526.31 403.41C527.02 403.41 527.6 403.99 527.6 404.71C527.6 405.42 527.02 406 526.31 406Z" />
						<path id="&lt;Path&gt;" class="shp8" d="M526.31 414.78L473.98 414.78C473.26 414.78 472.68 414.2 472.68 413.48C472.68 412.77 473.26 412.19 473.98 412.19L526.31 412.19C527.02 412.19 527.6 412.77 527.6 413.48C527.6 414.2 527.02 414.78 526.31 414.78Z" />
						<path id="&lt;Path&gt;" class="shp8" d="M513.29 423.56L473.98 423.56C473.26 423.56 472.68 422.98 472.68 422.26C472.68 421.55 473.26 420.97 473.98 420.97L513.29 420.97C514.01 420.97 514.59 421.55 514.59 422.26C514.59 422.98 514.01 423.56 513.29 423.56Z" />
					</g>
					<g id="&lt;Group&gt;">
						<g id="&lt;Group&gt;">
							<g id="&lt;Group&gt;">
								<g id="&lt;Group&gt;">
									<path id="&lt;Path&gt;" class="shp9" d="M396.38 499.91L302.02 499.91C295.76 499.91 290.69 494.83 290.69 488.57L290.69 395C290.69 388.74 295.76 383.67 302.02 383.67L396.38 383.67C402.64 383.67 407.71 388.74 407.71 395L407.71 488.57C407.71 494.83 402.64 499.91 396.38 499.91Z" />
								</g>
								<g id="&lt;Group&gt;">
									<path id="&lt;Path&gt;" class="shp10" d="M398.67 499.91C403.66 499.91 407.71 495.86 407.71 490.87L407.71 392.7C407.71 389.02 405.5 385.85 402.34 384.45C361.6 447.77 317.13 477.44 290.69 490.53L290.69 490.87C290.69 495.86 294.73 499.91 299.73 499.91L398.67 499.91Z" />
								</g>
							</g>
						</g>
						<g id="&lt;Group&gt;">
							<g id="&lt;Group&gt;">
								<path id="&lt;Compound Path&gt;" class="shp8" d="M314.77 448.86C314.23 448.61 313.8 448.22 313.47 447.7C313.14 447.18 312.98 446.63 312.98 446.04C312.98 445.42 313.16 444.84 313.53 444.29C313.9 443.75 314.44 443.33 315.16 443.03L334.61 434.97C334.8 434.91 334.94 434.88 335.04 434.88C335.57 434.88 336.05 435.18 336.5 435.77C336.94 436.37 337.17 436.99 337.17 437.63C337.17 438.41 336.82 438.94 336.11 439.23L319.27 446.06L336.16 453.21C336.7 453.43 336.98 453.93 336.98 454.69C336.98 455.34 336.78 455.97 336.4 456.58C336.02 457.18 335.59 457.49 335.11 457.49C334.98 457.49 334.85 457.46 334.7 457.42L314.77 448.86Z" />
								<path id="&lt;Compound Path&gt;" class="shp8" d="M343.51 460.69C343.07 460.32 342.86 459.84 342.86 459.23C342.86 458.93 342.93 458.52 343.07 458.01L354.16 425.17C354.34 424.58 354.61 424.12 355 423.79C355.38 423.45 355.8 423.29 356.26 423.29C356.84 423.29 357.34 423.47 357.77 423.85C358.2 424.22 358.41 424.72 358.41 425.34C358.41 425.68 358.34 426.07 358.2 426.54L346.97 459.78C346.63 460.75 345.98 461.24 345.01 461.24C344.45 461.24 343.95 461.06 343.51 460.69Z" />
								<path id="&lt;Compound Path&gt;" class="shp8" d="M364.75 457.49C364.27 457.49 363.83 457.18 363.44 456.58C363.05 455.97 362.86 455.34 362.86 454.69C362.86 453.93 363.13 453.43 363.67 453.21L380.57 446.06L363.74 439.23C363.03 438.94 362.67 438.41 362.67 437.63C362.67 436.99 362.89 436.37 363.34 435.77C363.78 435.18 364.27 434.88 364.79 434.88C364.89 434.88 365.03 434.91 365.22 434.97L384.68 443.03C385.41 443.33 385.96 443.75 386.32 444.29C386.68 444.84 386.85 445.42 386.85 446.04C386.85 446.63 386.69 447.19 386.38 447.71C386.06 448.24 385.62 448.62 385.06 448.86L365.15 457.42C365.01 457.46 364.87 457.49 364.75 457.49Z" />
							</g>
						</g>
					</g>
					<g id="&lt;Group&gt;">
						<path id="&lt;Path&gt;" class="shp13" d="M289.02 13.11L258.27 13.11C256.05 13.11 254.24 14.91 254.24 17.14L254.24 66.92C254.24 69.14 256.05 70.95 258.27 70.95L296.05 70.95C298.28 70.95 300.08 69.14 300.08 66.92L300.08 23.66L289.02 13.11Z" />
						<path id="&lt;Path&gt;" class="shp14" d="M289.02 13.11L300.08 23.66L291.01 23.66C289.91 23.66 289.02 22.77 289.02 21.67L289.02 13.11Z" />
						<path id="&lt;Path&gt;" class="shp4" d="M290.32 54.59L264 54.59C263.64 54.59 263.35 54.3 263.35 53.94C263.35 53.58 263.64 53.29 264 53.29L290.32 53.29C290.68 53.29 290.97 53.58 290.97 53.94C290.97 54.3 290.68 54.59 290.32 54.59Z" />
						<path id="&lt;Path&gt;" class="shp4" d="M290.32 47.38L264 47.38C263.64 47.38 263.35 47.09 263.35 46.73C263.35 46.37 263.64 46.08 264 46.08L290.32 46.08C290.68 46.08 290.97 46.37 290.97 46.73C290.97 47.09 290.68 47.38 290.32 47.38Z" />
						<path id="&lt;Path&gt;" class="shp4" d="M290.32 40.18L264 40.18C263.64 40.18 263.35 39.88 263.35 39.52C263.35 39.16 263.64 38.87 264 38.87L290.32 38.87C290.68 38.87 290.97 39.16 290.97 39.52C290.97 39.88 290.68 40.18 290.32 40.18Z" />
						<path id="&lt;Path&gt;" class="shp4" d="M290.32 32.97L264 32.97C263.64 32.97 263.35 32.68 263.35 32.32C263.35 31.96 263.64 31.66 264 31.66L290.32 31.66C290.68 31.66 290.97 31.96 290.97 32.32C290.97 32.68 290.68 32.97 290.32 32.97Z" />
						<path id="&lt;Path&gt;" class="shp4" d="M283.77 60.96L264 60.96C263.64 60.96 263.35 60.67 263.35 60.31C263.35 59.95 263.64 59.66 264 59.66L283.77 59.66C284.13 59.66 284.43 59.95 284.43 60.31C284.43 60.67 284.13 60.96 283.77 60.96Z" />
					</g>
					<path id="&lt;Path&gt;" class="shp15" d="M291.01 44.92L286.74 49.43L251.19 49.52C248.42 49.53 246.19 51.78 246.19 54.54L246.29 91.33C246.3 94.1 248.55 96.33 251.31 96.33L307.17 96.18C309.94 96.17 312.17 93.92 312.17 91.16L312.07 53.55L312.06 49.36L312.05 46.77C312.05 45.25 310.81 44.02 309.29 44.02L293 44.06C292.24 44.07 291.52 44.38 291.01 44.92Z" />
					<path id="&lt;Path&gt;" class="shp4" d="M319.65 77.96L312.1 77.96L312.1 64.69L319.65 64.69C321.43 64.69 322.88 66.14 322.88 67.93L322.88 74.73C322.88 76.51 321.43 77.96 319.65 77.96Z" />
					<path id="&lt;Path&gt;" class="shp4" d="M445.26 140.74L445.26 148.29L431.99 148.29L431.99 140.74C431.99 138.95 433.44 137.51 435.23 137.51L442.02 137.51C443.81 137.51 445.26 138.95 445.26 140.74Z" />
					<path id="&lt;Path&gt;" class="shp16" d="M317.49 71.33L418.23 71.33C429.49 71.33 438.63 80.46 438.63 91.73L438.63 148.29" />
					<path id="&lt;Path&gt;" class="shp4" d="M583.64 210.78L576.09 210.78L576.09 197.51L583.64 197.51C585.43 197.51 586.88 198.96 586.88 200.75L586.88 207.54C586.88 209.33 585.43 210.78 583.64 210.78Z" />
					<path id="&lt;Path&gt;" class="shp4" d="M631.65 481.31L631.65 488.86L618.38 488.86L618.38 481.31C618.38 479.53 619.83 478.08 621.62 478.08L628.41 478.08C630.2 478.08 631.65 479.53 631.65 481.31Z" />
					<path id="&lt;Path&gt;" class="shp16" d="M581.48 204.15L604.61 204.15C615.88 204.15 625.01 213.28 625.01 224.55L625.01 488.86" />
					<g id="&lt;Group&gt;">
						<g id="&lt;Group&gt;">
							<g id="&lt;Group&gt;">
								<path id="&lt;Path&gt;" class="shp2" d="M247.31 550.31L213.93 550.31C212.15 550.31 210.7 548.86 210.7 547.08L210.7 513.96C210.7 512.18 212.15 510.73 213.93 510.73L247.31 510.73C249.1 510.73 250.54 512.18 250.54 513.96L250.54 547.08C250.54 548.86 249.1 550.31 247.31 550.31Z" />
								<path id="&lt;Path&gt;" class="shp17" d="M247.47 550.31C249.17 550.31 250.54 548.93 250.54 547.23L250.54 513.81C250.54 512.55 249.79 511.47 248.71 511C234.84 532.56 219.7 542.66 210.7 547.12L210.7 547.23C210.7 548.93 212.08 550.31 213.78 550.31L247.47 550.31Z" />
							</g>
							<g id="&lt;Group&gt;">
								<path id="&lt;Path&gt;" class="shp8" d="M219.73 538.85L230.57 538.85C231.45 538.85 231.98 537.86 231.48 537.12L226.06 529.15C225.62 528.51 224.68 528.51 224.24 529.15L218.82 537.12C218.32 537.86 218.85 538.85 219.73 538.85Z" />
								<path id="&lt;Path&gt;" class="shp8" d="M229.9 538.85L240.74 538.85C241.62 538.85 242.14 537.86 241.65 537.12L236.23 529.15C235.79 528.51 234.85 528.51 234.41 529.15L228.99 537.12C228.49 537.86 229.02 538.85 229.9 538.85Z" />
								<path id="&lt;Path&gt;" class="shp8" d="M232.2 524.28C232.2 525.42 231.27 526.36 230.12 526.36C228.97 526.36 228.04 525.42 228.04 524.28C228.04 523.13 228.97 522.19 230.12 522.19C231.27 522.19 232.2 523.13 232.2 524.28Z" />
							</g>
						</g>
						<path id="&lt;Path&gt;" class="shp15" d="M242.45 533.14L238.18 537.64L202.63 537.73C199.86 537.74 197.63 539.99 197.64 542.76L197.73 579.54C197.74 582.31 199.99 584.55 202.76 584.54L258.61 584.39C261.38 584.39 263.62 582.14 263.61 579.37L263.51 541.76L263.5 537.57L263.49 534.98C263.49 533.46 262.25 532.23 260.73 532.23L244.44 532.28C243.69 532.28 242.97 532.59 242.45 533.14Z" />
						<g id="&lt;Group&gt;">
							<path id="&lt;Path&gt;" class="shp4" d="M271.09 555.91L263.54 555.91L263.54 569.18L271.09 569.18C272.88 569.18 274.32 567.73 274.32 565.95L274.32 559.15C274.32 557.36 272.88 555.91 271.09 555.91Z" />
							<path id="&lt;Path&gt;" class="shp4" d="M490.44 480.52L490.44 472.97L477.17 472.97L477.17 480.52C477.17 482.31 478.62 483.76 480.41 483.76L487.2 483.76C488.99 483.76 490.44 482.31 490.44 480.52Z" />
							<path id="&lt;Path&gt;" class="shp16" d="M268.93 562.55L463.41 562.55C474.67 562.55 483.81 553.41 483.81 542.15L483.81 472.97" />
						</g>
					</g>
					<g id="&lt;Group&gt;">
						<path id="&lt;Path&gt;" class="shp4" d="M57.01 75.62L57.01 68.07L43.74 68.07L43.74 75.62C43.74 77.4 45.19 78.85 46.98 78.85L53.78 78.85C55.56 78.85 57.01 77.4 57.01 75.62Z" />
						<path id="&lt;Path&gt;" class="shp4" d="M176.34 140.74L176.34 148.29L189.61 148.29L189.61 140.74C189.61 138.95 188.16 137.51 186.37 137.51L179.58 137.51C177.79 137.51 176.34 138.95 176.34 140.74Z" />
						<path id="&lt;Path&gt;" class="shp16" d="M50.38 73.46L50.38 90.32C50.38 101.58 59.51 110.72 70.78 110.72L164.3 110.72C174.61 110.72 182.97 119.08 182.97 129.39L182.97 144.08" />
					</g>
					<g id="&lt;Group&gt;">
						<path id="&lt;Path&gt;" class="shp13" d="M460.82 194.84L400.9 194.84C396.57 194.84 393.05 198.36 393.05 202.69L393.05 299.68C393.05 304.01 396.57 307.53 400.9 307.53L474.51 307.53C478.84 307.53 482.36 304.01 482.36 299.68L482.36 215.4L460.82 194.84Z" />
						<path id="&lt;Path&gt;" class="shp8" d="M460.82 191.13L400.9 191.13C396.57 191.13 393.05 194.65 393.05 198.98L393.05 295.97C393.05 300.3 396.57 303.82 400.9 303.82L474.51 303.82C478.84 303.82 482.36 300.3 482.36 295.97L482.36 211.69L460.82 191.13Z" />
						<path id="&lt;Path&gt;" class="shp13" d="M460.82 191.13L482.36 211.69L464.69 211.69C462.55 211.69 460.82 209.95 460.82 207.82L460.82 191.13Z" />
						<path id="&lt;Path&gt;" class="shp4" d="M463.34 271.96L412.07 271.96C411.37 271.96 410.8 271.39 410.8 270.69C410.8 269.99 411.37 269.42 412.07 269.42L463.34 269.42C464.04 269.42 464.61 269.99 464.61 270.69C464.61 271.39 464.04 271.96 463.34 271.96Z" />
						<path id="&lt;Path&gt;" class="shp4" d="M463.34 257.92L412.07 257.92C411.37 257.92 410.8 257.35 410.8 256.65C410.8 255.95 411.37 255.38 412.07 255.38L463.34 255.38C464.04 255.38 464.61 255.95 464.61 256.65C464.61 257.35 464.04 257.92 463.34 257.92Z" />
						<path id="&lt;Path&gt;" class="shp4" d="M463.34 243.87L412.07 243.87C411.37 243.87 410.8 243.3 410.8 242.6C410.8 241.9 411.37 241.33 412.07 241.33L463.34 241.33C464.04 241.33 464.61 241.9 464.61 242.6C464.61 243.3 464.04 243.87 463.34 243.87Z" />
						<path id="&lt;Path&gt;" class="shp4" d="M463.34 229.83L412.07 229.83C411.37 229.83 410.8 229.26 410.8 228.56C410.8 227.86 411.37 227.29 412.07 227.29L463.34 227.29C464.04 227.29 464.61 227.86 464.61 228.56C464.61 229.26 464.04 229.83 463.34 229.83Z" />
						<path id="&lt;Path&gt;" class="shp4" d="M450.59 284.37L412.07 284.37C411.37 284.37 410.8 283.8 410.8 283.1C410.8 282.4 411.37 281.83 412.07 281.83L450.59 281.83C451.29 281.83 451.86 282.4 451.86 283.1C451.86 283.8 451.29 284.37 450.59 284.37Z" />
						<path id="&lt;Path&gt;" class="shp4" d="M409.8 203.61C409.8 206.33 407.59 208.54 404.86 208.54C402.14 208.54 399.93 206.33 399.93 203.61C399.93 200.88 402.14 198.67 404.86 198.67C407.59 198.67 409.8 200.88 409.8 203.61Z" />
					</g>
					<g id="&lt;Group&gt;">
						<path id="&lt;Path&gt;" class="shp13" d="M519.36 253.67L459.44 253.67C455.11 253.67 451.59 257.18 451.59 261.52L451.59 358.51C451.59 362.84 455.11 366.36 459.44 366.36L533.05 366.36C537.38 366.36 540.9 362.84 540.9 358.51L540.9 274.22L519.36 253.67Z" />
						<path id="&lt;Path&gt;" class="shp8" d="M519.36 249.96L459.44 249.96C455.11 249.96 451.59 253.47 451.59 257.81L451.59 354.8C451.59 359.13 455.11 362.65 459.44 362.65L533.05 362.65C537.38 362.65 540.9 359.13 540.9 354.8L540.9 270.51L519.36 249.96Z" />
						<path id="&lt;Path&gt;" class="shp13" d="M519.36 249.96L540.9 270.51L523.23 270.51C521.09 270.51 519.36 268.78 519.36 266.64L519.36 249.96Z" />
						<path id="&lt;Path&gt;" class="shp4" d="M521.88 330.79L470.61 330.79C469.91 330.79 469.34 330.22 469.34 329.52C469.34 328.82 469.91 328.25 470.61 328.25L521.88 328.25C522.58 328.25 523.15 328.82 523.15 329.52C523.15 330.22 522.58 330.79 521.88 330.79Z" />
						<path id="&lt;Path&gt;" class="shp4" d="M521.88 316.74L470.61 316.74C469.91 316.74 469.34 316.17 469.34 315.47C469.34 314.77 469.91 314.21 470.61 314.21L521.88 314.21C522.58 314.21 523.15 314.77 523.15 315.47C523.15 316.17 522.58 316.74 521.88 316.74Z" />
						<path id="&lt;Path&gt;" class="shp4" d="M521.88 302.7L470.61 302.7C469.91 302.7 469.34 302.13 469.34 301.43C469.34 300.73 469.91 300.16 470.61 300.16L521.88 300.16C522.58 300.16 523.15 300.73 523.15 301.43C523.15 302.13 522.58 302.7 521.88 302.7Z" />
						<path id="&lt;Path&gt;" class="shp4" d="M521.88 288.65L470.61 288.65C469.91 288.65 469.34 288.08 469.34 287.38C469.34 286.68 469.91 286.11 470.61 286.11L521.88 286.11C522.58 286.11 523.15 286.68 523.15 287.38C523.15 288.08 522.58 288.65 521.88 288.65Z" />
						<path id="&lt;Path&gt;" class="shp4" d="M509.13 343.2L470.61 343.2C469.91 343.2 469.34 342.63 469.34 341.93C469.34 341.23 469.91 340.66 470.61 340.66L509.13 340.66C509.83 340.66 510.4 341.23 510.4 341.93C510.4 342.63 509.83 343.2 509.13 343.2Z" />
						<path id="&lt;Path&gt;" class="shp4" d="M468.34 262.44C468.34 265.16 466.13 267.37 463.41 267.37C460.68 267.37 458.47 265.16 458.47 262.44C458.47 259.71 460.68 257.5 463.41 257.5C466.13 257.5 468.34 259.71 468.34 262.44Z" />
					</g>
					<g id="&lt;Group&gt;">
						<g id="&lt;Group&gt;">
							<g id="&lt;Group&gt;">
								<path id="&lt;Path&gt;" class="shp7" d="M426.59 364.28L396.12 364.28C394.36 364.28 392.93 362.85 392.93 361.09L392.93 330.86C392.93 329.1 394.36 327.67 396.12 327.67L426.59 327.67C428.35 327.67 429.78 329.1 429.78 330.86L429.78 361.09C429.78 362.85 428.35 364.28 426.59 364.28Z" />
								<path id="&lt;Path&gt;" class="shp4" d="M426.94 364.28C428.51 364.28 429.78 363.01 429.78 361.43L429.78 330.52C429.78 329.36 429.09 328.36 428.09 327.92C415.26 347.86 401.25 357.21 392.93 361.33L392.93 361.43C392.93 363.01 394.2 364.28 395.77 364.28L426.94 364.28Z" />
							</g>
						</g>
						<path id="&lt;Path&gt;" class="shp8" d="M410.78 350.31L415.01 346.08C415.2 345.89 415.48 345.84 415.74 345.92C417.69 346.55 419.93 346.13 421.49 344.66C422.65 343.56 423.25 342.1 423.29 340.63C423.3 339.99 422.55 339.64 422.1 340.09L420.18 342.01C419.68 342.51 419.25 342.5 418.97 342.23L415.79 339.05C415.52 338.78 415.52 338.34 415.79 338.06L417.93 335.93C418.38 335.48 418.04 334.72 417.4 334.74C415.98 334.77 414.57 335.33 413.48 336.41C411.89 338 411.43 340.29 412.09 342.29C412.18 342.55 412.12 342.83 411.93 343.02L407.7 347.26C407.51 347.45 407.23 347.5 406.97 347.41C405.02 346.78 402.78 347.2 401.22 348.67C400.06 349.77 399.46 351.23 399.42 352.71C399.41 353.35 400.16 353.69 400.61 353.24L402.75 351.1C403.02 350.83 403.46 350.83 403.74 351.1L406.92 354.28C407.19 354.56 407.19 355 406.92 355.27L404.78 357.41C404.33 357.86 404.67 358.61 405.31 358.6C406.73 358.56 408.15 358.01 409.23 356.92C410.82 355.33 411.28 353.04 410.62 351.04C410.53 350.79 410.59 350.5 410.78 350.31Z" />
					</g>
					<g id="&lt;Group&gt;">
						<path id="&lt;Path&gt;" class="shp18" d="M513.08 251.85L513.08 264.94C513.08 267.54 512.15 271.16 507.28 271.16C502.19 271.16 501.41 267.54 501.41 264.94L501.41 244.99" />
						<path id="&lt;Path&gt;" class="shp18" d="M513.08 261.25L513.08 248.22C513.08 246.44 511.74 244.23 509.09 244.23C506.41 244.23 505.11 246.44 505.11 248.22L505.11 258.43" />
						<path id="&lt;Path&gt;" class="shp18" d="M505.11 254.02L505.11 263.39C505.11 264.38 504.94 266.71 507.17 266.71C509.65 266.71 509.46 264.38 509.46 263.39L509.46 251.85" />
					</g>
					<g id="&lt;Group&gt;">
						<path id="&lt;Path&gt;" class="shp18" d="M453.95 191.05L453.95 204.14C453.95 206.73 453.02 210.36 448.15 210.36C443.06 210.36 442.28 206.73 442.28 204.14L442.28 184.19" />
						<path id="&lt;Path&gt;" class="shp18" d="M453.95 200.45L453.95 187.41C453.95 185.63 452.61 183.43 449.97 183.43C447.28 183.43 445.98 185.63 445.98 187.41L445.98 197.63" />
						<path id="&lt;Path&gt;" class="shp18" d="M445.98 193.22L445.98 202.59C445.98 203.58 445.82 205.9 448.04 205.9C450.52 205.9 450.33 203.58 450.33 202.59L450.33 191.05" />
					</g>
					<path id="&lt;Path&gt;" class="shp4" d="M543.64 73.56C543.83 73.56 550.03 73.56 562.24 73.56L604.72 73.56L620.84 73.56C630.93 73.56 639.1 65.38 639.1 55.3C639.1 45.21 630.93 37.03 620.84 37.03C620.69 37.03 620.54 37.05 620.39 37.06C617.61 19.17 602.15 5.49 583.48 5.49C568.8 5.49 556.1 13.97 550 26.29C547.97 25.73 545.84 25.41 543.64 25.41C530.34 25.41 519.57 36.19 519.57 49.49C519.57 62.78 530.34 73.56 543.64 73.56Z" />
					<g id="&lt;Group&gt;">
						<path id="&lt;Path&gt;" class="shp8" d="M592.72 52.4L569.49 52.38C568.68 52.38 568.17 51.49 568.59 50.79L580.22 31.46C580.63 30.78 581.61 30.79 582.02 31.46L593.62 50.81C594.04 51.51 593.53 52.4 592.72 52.4Z" />
						<path id="&lt;Path&gt;" class="shp8" d="M580.24 59.44L581.95 59.44C582.99 59.44 583.84 58.6 583.84 57.56L583.85 41.44C583.85 40.39 583.01 39.55 581.96 39.55L580.25 39.55C579.21 39.54 578.37 40.39 578.36 41.43L578.35 57.55C578.35 58.59 579.19 59.44 580.24 59.44Z" />
					</g>
					<path id="&lt;Path&gt;" class="shp4" d="M24.07 576.25C24.26 576.25 30.46 576.25 42.67 576.25L85.16 576.25L101.28 576.25C111.36 576.25 119.54 568.07 119.54 557.99C119.54 547.9 111.36 539.72 101.28 539.72C101.12 539.72 100.98 539.74 100.83 539.75C98.04 521.87 82.58 508.18 63.92 508.18C49.24 508.18 36.54 516.66 30.43 528.98C28.4 528.42 26.28 528.1 24.07 528.1C10.78 528.1 0 538.88 0 552.18C0 565.47 10.78 576.25 24.07 576.25Z" />
					<g id="&lt;Group&gt;">
						<path id="&lt;Path&gt;" class="shp8" d="M49.94 540.69L73.16 540.71C73.98 540.71 74.48 541.6 74.06 542.3L62.43 561.62C62.02 562.3 61.04 562.3 60.63 561.62L49.04 542.27C48.62 541.58 49.12 540.69 49.94 540.69Z" />
						<path id="&lt;Path&gt;" class="shp8" d="M62.42 533.65L60.71 533.64C59.67 533.64 58.82 534.49 58.82 535.53L58.8 551.65C58.8 552.69 59.65 553.54 60.69 553.54L62.4 553.54C63.44 553.54 64.29 552.7 64.29 551.66L64.3 535.54C64.3 534.49 63.46 533.65 62.42 533.65Z" />
					</g>
					<g id="&lt;Group&gt;">
						<g id="&lt;Group&gt;">
							<path id="&lt;Path&gt;" class="shp2" d="M133.9 283.75L39.54 283.75C33.28 283.75 28.21 278.67 28.21 272.41L28.21 178.84C28.21 172.58 33.28 167.51 39.54 167.51L133.9 167.51C140.16 167.51 145.23 172.58 145.23 178.84L145.23 272.41C145.23 278.67 140.16 283.75 133.9 283.75Z" />
							<path id="&lt;Path&gt;" class="shp17" d="M136.19 283.75C141.18 283.75 145.23 279.7 145.23 274.71L145.23 176.54C145.23 172.86 143.02 169.69 139.86 168.29C99.12 231.61 54.65 261.28 28.21 274.37L28.21 274.71C28.21 279.7 32.25 283.75 37.25 283.75L136.19 283.75Z" />
							<path id="&lt;Path&gt;" class="shp19" d="M141.09 290.89L32.35 290.89C26.09 290.89 21.02 285.81 21.02 279.55L21.02 171.7C21.02 165.44 26.09 160.36 32.35 160.36L141.09 160.36C147.35 160.36 152.42 165.44 152.42 171.7L152.42 279.55C152.42 285.81 147.35 290.89 141.09 290.89Z" />
						</g>
						<g id="&lt;Group&gt;">
							<path id="&lt;Path&gt;" class="shp8" d="M54.74 250.08L86.56 250.08C89.16 250.08 90.7 247.17 89.24 245.02L73.32 221.61C72.04 219.72 69.26 219.72 67.98 221.61L52.06 245.02C50.6 247.17 52.14 250.08 54.74 250.08Z" />
							<path id="&lt;Path&gt;" class="shp8" d="M84.61 250.08L116.43 250.08C119.03 250.08 120.56 247.17 119.1 245.02L103.19 221.61C101.91 219.72 99.13 219.72 97.84 221.61L81.93 245.02C80.47 247.17 82.01 250.08 84.61 250.08Z" />
							<path id="&lt;Path&gt;" class="shp8" d="M91.35 207.28C91.35 210.66 88.61 213.4 85.24 213.4C81.87 213.4 79.13 210.66 79.13 207.28C79.13 203.91 81.87 201.17 85.24 201.17C88.61 201.17 91.35 203.91 91.35 207.28Z" />
						</g>
					</g>
					<g id="&lt;Group&gt;">
						<path id="&lt;Path&gt;" class="shp8" d="M167.91 275.11L143.98 298.99C143.14 299.83 141.71 299.43 141.42 298.28L133.49 266.41C133.22 265.29 134.23 264.28 135.35 264.56L167.2 272.54C168.35 272.83 168.75 274.27 167.91 275.11Z" />
						<path id="&lt;Path&gt;" class="shp8" d="M168.02 302.13L171 299.15C171.74 298.41 171.74 297.22 171 296.48L153.21 278.65C152.47 277.92 151.27 277.91 150.54 278.65L147.56 281.63C146.82 282.36 146.82 283.56 147.55 284.3L165.35 302.12C166.09 302.86 167.28 302.86 168.02 302.13Z" />
					</g>
					<path id="&lt;Path&gt;" class="shp4" d="M422.14 562.55C422.14 572.72 413.9 580.97 403.72 580.97C393.55 580.97 385.3 572.72 385.3 562.55C385.3 552.37 393.55 544.12 403.72 544.12C413.9 544.12 422.14 552.37 422.14 562.55Z" />
					<g id="&lt;Group&gt;">
						<path id="&lt;Path&gt;" class="shp8" d="M408.36 552.89C408.36 552.89 408.36 552.89 408.36 552.89C408.25 552.64 408.12 552.41 407.98 552.19C407.94 552.14 407.91 552.09 407.87 552.04C407.75 551.86 407.61 551.7 407.46 551.54C407.42 551.5 407.39 551.46 407.35 551.42C406.96 551.05 406.52 550.75 406.03 550.53C405.97 550.51 405.91 550.49 405.85 550.47C405.66 550.39 405.46 550.33 405.26 550.28C405.19 550.27 405.12 550.25 405.04 550.23C404.78 550.18 404.51 550.15 404.23 550.15L403.21 550.15C402.94 550.15 402.67 550.18 402.4 550.23C402.33 550.25 402.25 550.27 402.18 550.28C401.98 550.33 401.78 550.39 401.59 550.47C401.53 550.49 401.47 550.51 401.41 550.53C400.92 550.75 400.48 551.05 400.09 551.42C400.06 551.46 400.02 551.5 399.98 551.54C399.83 551.7 399.7 551.86 399.57 552.04C399.53 552.09 399.5 552.14 399.47 552.19C399.32 552.41 399.19 552.64 399.08 552.89C399.08 552.89 399.08 552.89 399.08 552.89C398.85 553.43 398.73 554.02 398.73 554.64L398.73 557.35C398.73 557.79 399.08 558.14 399.52 558.14C399.96 558.14 400.31 557.79 400.31 557.35L400.31 554.64C400.31 554.23 400.4 553.84 400.55 553.49C400.65 553.26 400.78 553.06 400.93 552.87C400.97 552.81 401.02 552.76 401.06 552.71C401.22 552.53 401.4 552.36 401.6 552.23C401.62 552.21 401.65 552.2 401.68 552.19C401.86 552.07 402.06 551.98 402.27 551.91C402.33 551.88 402.4 551.86 402.46 551.85C402.7 551.78 402.95 551.73 403.21 551.73L404.23 551.73C404.49 551.73 404.74 551.78 404.98 551.85C405.05 551.86 405.11 551.88 405.17 551.91C405.38 551.98 405.58 552.07 405.77 552.19C405.79 552.2 405.82 552.21 405.85 552.23C406.04 552.36 406.22 552.53 406.38 552.71C406.43 552.76 406.47 552.81 406.51 552.87C406.66 553.06 406.79 553.26 406.89 553.49C407.04 553.84 407.13 554.23 407.13 554.64L407.13 557.35C407.13 557.79 407.48 558.14 407.92 558.14C408.36 558.14 408.71 557.79 408.71 557.35L408.71 554.64C408.71 554.02 408.59 553.43 408.36 552.89Z" />
						<path id="&lt;Path&gt;" class="shp8" d="M403.72 568.42C403.28 568.42 402.93 568.06 402.93 567.63L402.93 564.84C402.93 564.4 403.28 564.05 403.72 564.05C404.16 564.05 404.51 564.4 404.51 564.84L404.51 567.63C404.51 568.06 404.16 568.42 403.72 568.42Z" />
						<path id="&lt;Compound Path&gt;" fill-rule="evenodd" class="shp8" d="M408.13 573.75L399.31 573.75C397.13 573.75 395.35 571.97 395.35 569.79L395.35 560.96C395.35 558.78 397.13 557 399.31 557L408.13 557C410.32 557 412.09 558.78 412.09 560.96L412.09 569.79C412.09 571.97 410.32 573.75 408.13 573.75ZM399.31 558.59C398 558.59 396.93 559.65 396.93 560.96L396.93 569.79C396.93 571.1 398 572.16 399.31 572.16L408.13 572.16C409.44 572.16 410.51 571.1 410.51 569.79L410.51 560.96C410.51 559.65 409.44 558.59 408.13 558.59L399.31 558.59Z" />
						<path id="&lt;Path&gt;" class="shp8" d="M405.39 564.68C405.39 565.6 404.65 566.35 403.72 566.35C402.8 566.35 402.05 565.6 402.05 564.68C402.05 563.75 402.8 563 403.72 563C404.65 563 405.39 563.75 405.39 564.68Z" />
					</g>
					<path id="&lt;Path&gt;" class="shp4" d="M450.41 76.24C450.41 86.42 442.17 94.67 431.99 94.67C421.82 94.67 413.57 86.42 413.57 76.24C413.57 66.07 421.82 57.82 431.99 57.82C442.17 57.82 450.41 66.07 450.41 76.24Z" />
					<g id="&lt;Group&gt;">
						<path id="&lt;Path&gt;" class="shp8" d="M436.63 66.59C436.63 66.59 436.63 66.59 436.63 66.59C436.52 66.34 436.39 66.1 436.25 65.88C436.21 65.83 436.18 65.79 436.14 65.74C436.02 65.56 435.88 65.39 435.73 65.24C435.69 65.2 435.66 65.16 435.62 65.12C435.23 64.75 434.79 64.45 434.3 64.23C434.24 64.21 434.18 64.19 434.12 64.16C433.93 64.09 433.73 64.03 433.53 63.98C433.46 63.96 433.39 63.94 433.31 63.93C433.05 63.88 432.78 63.85 432.5 63.85L431.48 63.85C431.21 63.85 430.94 63.88 430.67 63.93C430.6 63.94 430.53 63.96 430.45 63.98C430.25 64.03 430.05 64.09 429.86 64.16C429.8 64.19 429.74 64.21 429.68 64.23C429.19 64.45 428.75 64.75 428.36 65.12C428.33 65.16 428.29 65.2 428.25 65.24C428.1 65.39 427.97 65.56 427.84 65.74C427.8 65.79 427.77 65.83 427.74 65.88C427.59 66.1 427.46 66.34 427.35 66.59C427.35 66.59 427.35 66.59 427.35 66.59C427.12 67.13 427 67.71 427 68.33L427 71.05C427 71.48 427.35 71.84 427.79 71.84C428.23 71.84 428.58 71.48 428.58 71.05L428.58 68.33C428.58 67.93 428.67 67.54 428.82 67.19C428.92 66.96 429.05 66.76 429.2 66.57C429.24 66.51 429.29 66.45 429.33 66.4C429.49 66.22 429.67 66.06 429.87 65.92C429.89 65.91 429.92 65.9 429.95 65.88C430.13 65.77 430.33 65.67 430.54 65.6C430.6 65.58 430.67 65.56 430.73 65.54C430.97 65.48 431.22 65.43 431.48 65.43L432.5 65.43C432.76 65.43 433.01 65.48 433.25 65.54C433.32 65.56 433.38 65.58 433.44 65.6C433.65 65.67 433.85 65.76 434.04 65.88C434.06 65.9 434.09 65.91 434.12 65.93C434.31 66.06 434.49 66.22 434.65 66.4C434.7 66.45 434.74 66.51 434.78 66.57C434.93 66.76 435.06 66.96 435.16 67.19C435.31 67.54 435.4 67.93 435.4 68.33L435.4 71.05C435.4 71.48 435.75 71.84 436.19 71.84C436.63 71.84 436.98 71.48 436.98 71.05L436.98 68.33C436.98 67.71 436.86 67.13 436.63 66.59Z" />
						<path id="&lt;Path&gt;" class="shp8" d="M431.99 82.11C431.55 82.11 431.2 81.76 431.2 81.32L431.2 78.54C431.2 78.1 431.55 77.74 431.99 77.74C432.43 77.74 432.78 78.1 432.78 78.54L432.78 81.32C432.78 81.76 432.43 82.11 431.99 82.11Z" />
						<path id="&lt;Compound Path&gt;" fill-rule="evenodd" class="shp8" d="M436.4 87.44L427.58 87.44C425.4 87.44 423.62 85.67 423.62 83.48L423.62 74.66C423.62 72.48 425.4 70.7 427.58 70.7L436.4 70.7C438.59 70.7 440.36 72.48 440.36 74.66L440.36 83.48C440.36 85.67 438.59 87.44 436.4 87.44ZM427.58 72.28C426.27 72.28 425.2 73.35 425.2 74.66L425.2 83.48C425.2 84.79 426.27 85.86 427.58 85.86L436.4 85.86C437.71 85.86 438.78 84.79 438.78 83.48L438.78 74.66C438.78 73.35 437.71 72.28 436.4 72.28L427.58 72.28Z" />
						<path id="&lt;Path&gt;" class="shp8" d="M433.67 78.37C433.67 79.3 432.92 80.05 431.99 80.05C431.07 80.05 430.32 79.3 430.32 78.37C430.32 77.45 431.07 76.7 431.99 76.7C432.92 76.7 433.67 77.45 433.67 78.37Z" />
					</g>
					<g id="&lt;Group&gt;">
						<path id="&lt;Path&gt;" class="shp20" d="M645.32 541.84L604.51 541.84C602.4 541.84 600.68 540.12 600.68 538.01L600.68 514.83C600.68 512.71 602.4 511 604.51 511L645.32 511C647.43 511 649.15 512.71 649.15 514.83L649.15 538.01C649.15 540.12 647.43 541.84 645.32 541.84Z" />
						<path id="&lt;Path&gt;" class="shp21" d="M646.35 511L603.48 511C602.3 511 601.29 511.74 600.88 512.78L623.25 533.16C624.25 533.94 625.58 533.94 626.58 533.16L648.95 512.78C648.54 511.74 647.53 511 646.35 511Z" />
						<path id="&lt;Path&gt;" class="shp13" d="M646.35 511L603.48 511C602.3 511 601.29 511.74 600.88 512.78L623.25 530.2C624.25 530.98 625.58 530.98 626.58 530.2L648.95 512.78C648.54 511.74 647.53 511 646.35 511Z" />
					</g>
					<g id="&lt;Group&gt;">
						<path id="&lt;Path&gt;" class="shp8" d="M537.04 220.1L500.09 220.1C497.97 220.1 496.26 218.38 496.26 216.27L496.26 195.54C496.26 193.42 497.97 191.71 500.09 191.71L537.04 191.71C539.15 191.71 540.87 193.42 540.87 195.54L540.87 216.27C540.87 218.38 539.15 220.1 537.04 220.1Z" />
						<path id="&lt;Path&gt;" class="shp21" d="M538.29 191.71L498.83 191.71C497.74 191.71 496.81 192.39 496.44 193.35L517.03 212.11C517.95 212.83 519.17 212.83 520.1 212.11L540.69 193.35C540.31 192.39 539.38 191.71 538.29 191.71Z" />
						<path id="&lt;Path&gt;" class="shp8" d="M538.29 191.71L498.83 191.71C497.74 191.71 496.81 192.39 496.44 193.35L517.03 209.39C517.95 210.11 519.17 210.11 520.1 209.39L540.69 193.35C540.31 192.39 539.38 191.71 538.29 191.71Z" />
					</g>
					<path id="&lt;Path&gt;" class="shp15" d="M636.84 533.08L632.57 537.58L597.02 537.67C594.26 537.68 592.02 539.93 592.03 542.7L592.12 579.48C592.13 582.25 594.38 584.49 597.15 584.48L653 584.33C655.77 584.33 658.01 582.08 658 579.31L657.9 541.7L657.89 537.51L657.88 534.92C657.88 533.4 656.64 532.17 655.12 532.18L638.83 532.22C638.08 532.22 637.36 532.53 636.84 533.08Z" />
					<path id="&lt;Path&gt;" class="shp1" d="M76.27 68.07L24.49 68.07C19.98 68.07 16.32 64.41 16.32 59.9L16.32 37.83C16.32 33.32 19.98 29.66 24.49 29.66L76.27 29.66C80.78 29.66 84.43 33.32 84.43 37.83L84.43 59.9C84.43 64.41 80.78 68.07 76.27 68.07Z" />
					<g id="&lt;Group&gt;">
						<path id="&lt;Path&gt;" class="shp2" d="M25.8 42.19L24.39 42.19C23.32 42.19 22.46 41.33 22.46 40.26L22.46 39.9C22.46 38.84 23.32 37.98 24.39 37.98L25.8 37.98C26.87 37.98 27.73 38.84 27.73 39.9L27.73 40.26C27.73 41.33 26.87 42.19 25.8 42.19Z" />
						<path id="&lt;Path&gt;" class="shp2" d="M46.88 42.19L45.47 42.19C44.4 42.19 43.54 41.33 43.54 40.26L43.54 39.9C43.54 38.84 44.4 37.98 45.47 37.98L46.88 37.98C47.95 37.98 48.81 38.84 48.81 39.9L48.81 40.26C48.81 41.33 47.95 42.19 46.88 42.19Z" />
						<path id="&lt;Path&gt;" class="shp3" d="M38.23 42.19L33.04 42.19C31.98 42.19 31.11 41.33 31.11 40.26L31.11 39.9C31.11 38.84 31.98 37.98 33.04 37.98L38.23 37.98C39.29 37.98 40.16 38.84 40.16 39.9L40.16 40.26C40.16 41.33 39.29 42.19 38.23 42.19Z" />
						<path id="&lt;Path&gt;" class="shp2" d="M74.25 42.19L55.88 42.19C54.82 42.19 53.95 41.33 53.95 40.26L53.95 39.9C53.95 38.84 54.82 37.98 55.88 37.98L74.25 37.98C75.32 37.98 76.18 38.84 76.18 39.9L76.18 40.26C76.18 41.33 75.32 42.19 74.25 42.19Z" />
						<path id="&lt;Path&gt;" class="shp3" d="M25.8 59.75L24.39 59.75C23.32 59.75 22.46 58.89 22.46 57.82L22.46 57.46C22.46 56.4 23.32 55.53 24.39 55.53L25.8 55.53C26.87 55.53 27.73 56.4 27.73 57.46L27.73 57.82C27.73 58.89 26.87 59.75 25.8 59.75Z" />
						<path id="&lt;Path&gt;" class="shp3" d="M76.37 59.75L74.96 59.75C73.89 59.75 73.03 58.89 73.03 57.82L73.03 57.46C73.03 56.4 73.89 55.53 74.96 55.53L76.37 55.53C77.44 55.53 78.3 56.4 78.3 57.46L78.3 57.82C78.3 58.89 77.44 59.75 76.37 59.75Z" />
						<path id="&lt;Path&gt;" class="shp2" d="M38.23 59.75L33.04 59.75C31.98 59.75 31.11 58.89 31.11 57.82L31.11 57.46C31.11 56.4 31.98 55.53 33.04 55.53L38.23 55.53C39.29 55.53 40.16 56.4 40.16 57.46L40.16 57.82C40.16 58.89 39.29 59.75 38.23 59.75Z" />
						<path id="&lt;Path&gt;" class="shp3" d="M66.67 59.75L51.25 59.75C50.19 59.75 49.32 58.89 49.32 57.82L49.32 57.46C49.32 56.4 50.19 55.53 51.25 55.53L66.67 55.53C67.73 55.53 68.6 56.4 68.6 57.46L68.6 57.82C68.6 58.89 67.73 59.75 66.67 59.75Z" />
						<path id="&lt;Path&gt;" class="shp3" d="M25.8 50.89L24.39 50.89C23.32 50.89 22.46 50.02 22.46 48.96L22.46 48.6C22.46 47.53 23.32 46.67 24.39 46.67L25.8 46.67C26.87 46.67 27.73 47.53 27.73 48.6L27.73 48.96C27.73 50.02 26.87 50.89 25.8 50.89Z" />
						<path id="&lt;Path&gt;" class="shp2" d="M33.98 50.89L32.57 50.89C31.5 50.89 30.64 50.02 30.64 48.96L30.64 48.6C30.64 47.53 31.5 46.67 32.57 46.67L33.98 46.67C35.05 46.67 35.91 47.53 35.91 48.6L35.91 48.96C35.91 50.02 35.05 50.89 33.98 50.89Z" />
						<path id="&lt;Path&gt;" class="shp3" d="M50.92 50.89L41.83 50.89C40.76 50.89 39.9 50.02 39.9 48.96L39.9 48.6C39.9 47.53 40.76 46.67 41.83 46.67L50.92 46.67C51.99 46.67 52.85 47.53 52.85 48.6L52.85 48.96C52.85 50.02 51.99 50.89 50.92 50.89Z" />
					</g>
					<g id="&lt;Group&gt;">
						<path id="&lt;Path&gt;" class="shp1" d="M76.27 25.79L24.49 25.79C19.98 25.79 16.32 22.14 16.32 17.63L16.32 8.17C16.32 3.66 19.98 0 24.49 0L76.27 0C80.78 0 84.43 3.66 84.43 8.17L84.43 17.63C84.43 22.14 80.78 25.79 76.27 25.79Z" />
						<g id="&lt;Group&gt;">
							<path id="&lt;Path&gt;" class="shp3" d="M25.8 19.44L24.39 19.44C23.32 19.44 22.46 18.57 22.46 17.51L22.46 17.15C22.46 16.08 23.32 15.22 24.39 15.22L25.8 15.22C26.87 15.22 27.73 16.08 27.73 17.15L27.73 17.51C27.73 18.57 26.87 19.44 25.8 19.44Z" />
							<path id="&lt;Path&gt;" class="shp3" d="M76.37 19.44L74.96 19.44C73.89 19.44 73.03 18.57 73.03 17.51L73.03 17.15C73.03 16.08 73.89 15.22 74.96 15.22L76.37 15.22C77.44 15.22 78.3 16.08 78.3 17.15L78.3 17.51C78.3 18.57 77.44 19.44 76.37 19.44Z" />
							<path id="&lt;Path&gt;" class="shp2" d="M38.23 19.44L33.04 19.44C31.98 19.44 31.11 18.57 31.11 17.51L31.11 17.15C31.11 16.08 31.98 15.22 33.04 15.22L38.23 15.22C39.29 15.22 40.16 16.08 40.16 17.15L40.16 17.51C40.16 18.57 39.29 19.44 38.23 19.44Z" />
							<path id="&lt;Path&gt;" class="shp3" d="M66.67 19.44L51.25 19.44C50.19 19.44 49.32 18.57 49.32 17.51L49.32 17.15C49.32 16.08 50.19 15.22 51.25 15.22L66.67 15.22C67.73 15.22 68.6 16.08 68.6 17.15L68.6 17.51C68.6 18.57 67.73 19.44 66.67 19.44Z" />
							<path id="&lt;Path&gt;" class="shp3" d="M25.8 10.57L24.39 10.57C23.32 10.57 22.46 9.71 22.46 8.64L22.46 8.28C22.46 7.22 23.32 6.36 24.39 6.36L25.8 6.36C26.87 6.36 27.73 7.22 27.73 8.28L27.73 8.64C27.73 9.71 26.87 10.57 25.8 10.57Z" />
							<path id="&lt;Path&gt;" class="shp2" d="M33.98 10.57L32.57 10.57C31.5 10.57 30.64 9.71 30.64 8.64L30.64 8.28C30.64 7.22 31.5 6.36 32.57 6.36L33.98 6.36C35.05 6.36 35.91 7.22 35.91 8.28L35.91 8.64C35.91 9.71 35.05 10.57 33.98 10.57Z" />
							<path id="&lt;Path&gt;" class="shp3" d="M50.92 10.57L41.83 10.57C40.76 10.57 39.9 9.71 39.9 8.64L39.9 8.28C39.9 7.22 40.76 6.36 41.83 6.36L50.92 6.36C51.99 6.36 52.85 7.22 52.85 8.28L52.85 8.64C52.85 9.71 51.99 10.57 50.92 10.57Z" />
						</g>
					</g>
				</g>
			</g>
		</g>
	</g>
</svg>